<svg width="127" height="34" viewBox="0 0 127 34" fill="none" xmlns="http://www.w3.org/2000/svg">
<path d="M2.71275 25.4231C4.46611 27.6784 6.81498 28.7377 9.16379 28.7377C11.1818 28.7377 13.1668 27.9517 14.6886 26.4141C16.8389 24.2954 18.2945 19.204 18.2945 13.2241C18.2945 9.26026 17.2689 5.36482 14.8539 2.93869C12.9683 1.0593 10.9172 0.307537 9.03146 0.307537C8.13827 0.307537 7.27813 0.478392 6.45105 0.78593C4.43303 1.57186 2.74583 3.21206 2.08418 5.39899C0.694728 7.51758 0 11.1055 0 14.7618C0 18.8964 0.893221 23.0995 2.71275 25.4231ZM5.42549 13.7708C5.55782 13.805 5.72323 13.805 5.92173 13.805C6.48416 13.805 7.17886 13.7025 7.41046 13.5658C8.07211 13.1899 8.50215 12.5407 8.50215 11.6522C7.64201 11.3789 7.1458 9.67031 7.1458 7.89343C7.1458 6.11658 7.74129 3.38291 9.75927 3.38291C11.7442 3.38291 15.0524 6.08241 15.0524 14.0784C15.0524 20.4683 12.439 26.0724 9.95777 26.0724C7.64201 26.0724 6.25255 21.2543 5.85556 19.5115C5.69015 18.8623 5.35933 16.2653 5.35933 14.6935C5.35933 14.2834 5.35933 13.9758 5.42549 13.7708ZM19.6597 17.0512C19.9905 20.9125 20.3544 23.8512 21.3138 25.2522C22.207 26.5166 23.3318 27.0633 24.5558 27.0633C25.1182 27.0633 25.7137 26.9608 26.2761 26.7216C27.3348 26.3115 29.1212 24.398 29.2866 22.9969C29.3197 22.8602 29.3197 22.7236 29.3197 22.5869C29.3197 21.4251 28.658 20.81 28.1618 20.81C28.0956 20.81 28.0295 20.8442 27.9964 20.8442C27.9964 21.3567 27.6656 22.2452 27.2355 22.9628C26.7723 23.7146 26.1768 24.3296 25.6145 24.3296C25.4821 24.3296 25.3498 24.2954 25.2175 24.2271C24.5889 23.8512 24.2912 22.8261 24.1589 21.4593C24.0265 20.2975 24.0265 18.9306 24.0265 17.3929C24.5227 16.0261 25.2505 14.01 25.7799 11.7548C26.1107 10.2854 26.3423 8.71353 26.3423 7.17587C26.3423 6.52659 26.3092 5.91155 26.21 5.26231C25.9453 3.41708 24.8205 1.91357 23.5634 1.16181C23.0341 0.854271 22.4716 0.683417 21.9423 0.683417C20.983 0.683417 20.1559 1.26432 19.825 2.66532C19.4942 4.1005 19.3619 6.79996 19.3619 9.67031C19.3619 12.2673 19.4612 15.001 19.6597 17.0512ZM23.0671 13.4291C23.0671 13.4291 22.8686 11.3105 22.8686 9.3286C22.8686 7.07333 22.9679 5.84321 23.2326 5.84321C23.7949 5.84321 23.9604 6.62914 23.9604 7.65426C23.9604 8.23513 23.8611 9.0211 23.7949 9.63617C23.5303 11.5839 23.0671 13.4291 23.0671 13.4291ZM36.6063 25.2864C37.4334 26.5508 38.4589 27.2342 39.6499 27.2342C40.0138 27.2342 40.4438 27.1658 40.8408 27.0292C42.4288 26.5166 43.9175 25.013 44.3476 23.0653C44.4137 22.7919 44.4137 22.5527 44.4137 22.3477C44.4137 21.2542 43.7852 20.81 43.2889 20.81H43.1235C43.0574 21.2884 42.7927 22.1085 42.3957 22.7578C42.0318 23.3728 41.5356 23.8512 41.0063 23.8512C40.8739 23.8512 40.7416 23.817 40.5762 23.7487C40.0469 23.4412 39.716 21.801 39.6499 19.3407C39.6168 18.9306 39.6168 18.4864 39.6168 18.008C39.6168 16.6754 39.683 15.1718 39.8153 13.5316C40.3115 12.0965 41.8333 7.17587 41.8333 4.30552C41.8333 2.25527 40.6093 0.888442 39.2529 0.307537C38.7897 0.102511 38.2935 0 37.8304 0C36.9371 0 36.2093 0.410049 35.9116 1.23015C35.3823 2.76784 35.25 6.45825 35.25 10.0804C34.6875 9.87533 34.092 9.77285 33.4966 9.77285C32.8349 9.77285 32.1733 9.90954 31.5116 10.1146C29.9898 10.593 28.8982 12.404 28.2365 14.6251C27.8064 16.0944 27.5749 17.7346 27.5749 19.2723C27.5749 20.1949 27.641 21.1176 27.8395 21.9377C28.2696 23.9196 29.1297 25.2864 30.056 26.0724C30.7508 26.6874 31.4786 26.9949 32.1402 26.9949C32.4049 26.9949 32.6364 26.9266 32.868 26.8583C33.9597 26.4482 34.9522 24.4322 35.7462 22.4844C35.9446 23.6803 36.2093 24.7055 36.6063 25.2864ZM35.4153 17.8372C34.3898 20.6392 33.3973 23.2703 32.6695 23.2703C32.0741 23.2703 31.7763 21.801 31.7763 20.0924C31.7763 19.2723 31.8424 18.3839 31.9748 17.4955C32.2725 15.6502 32.8349 13.8391 33.7612 12.9849C34.2575 12.5065 34.7537 12.3015 35.25 12.3015C35.283 14.5568 35.3492 16.607 35.4153 17.8372ZM38.4589 9.56783C38.4589 9.56783 38.3266 8.23513 38.3266 6.90251C38.3266 5.56984 38.4259 4.23718 38.889 4.20301C39.1867 4.20301 39.319 4.54472 39.319 5.09145C39.319 5.60402 39.2198 6.25326 39.0875 6.93664C38.8228 8.26934 38.4589 9.56783 38.4589 9.56783ZM56.3575 24.1929C55.9936 23.9879 55.8613 22.8944 55.8613 21.4593C55.8613 20.6733 55.8943 19.8191 55.9605 18.9306C56.1259 16.4703 56.4236 13.9075 56.4236 13.0874C56.4236 12.2673 55.6958 11.4814 54.8688 11.003C54.3064 10.6613 53.6447 10.4563 53.2147 10.4563C52.8508 10.4563 52.5861 10.593 52.5861 10.9347L52.5199 11.4814C51.5936 10.2854 50.2373 9.67031 48.8147 9.67031C48.1862 9.67031 47.5245 9.77285 46.8959 10.012C43.9847 11.1055 42.7937 15.4794 42.7937 19.1015C42.7937 20.0241 42.893 20.9125 43.0253 21.6643C43.72 25.1839 46.1351 26.8583 47.7561 26.8583C47.9877 26.8583 48.2192 26.8241 48.4177 26.7558C50.8658 25.8673 51.5606 21.3909 51.9906 20.3999C51.9906 20.7075 51.9576 21.1517 51.9576 21.6643C51.9576 22.3819 52.0237 23.2703 52.4207 24.3296C53.0162 25.9698 54.7365 26.9266 56.1921 26.9266C58.177 26.9266 59.8973 25.0472 60.3605 23.3386C60.4597 22.9969 60.4928 22.6894 60.4928 22.4161C60.4928 21.22 59.6327 20.8442 59.2687 20.8442C59.1695 21.3567 58.7725 22.3477 58.2101 23.1336C57.7469 23.7829 57.2507 24.2954 56.7214 24.2954C56.5891 24.2954 56.4898 24.2613 56.3575 24.1929ZM48.0869 23.3728C47.5576 23.3728 47.326 22.0401 47.326 20.4342C47.326 19.3748 47.4253 18.1105 47.6569 16.9487C47.9877 15.206 48.5501 13.5658 49.311 12.7799C49.741 12.3356 50.1711 12.1306 50.535 12.1306C51.2298 12.1306 51.8252 12.814 52.1229 13.8734C51.7591 15.6844 51.1966 17.7346 50.5681 19.4774C49.7741 21.6984 48.914 23.3728 48.0869 23.3728ZM68.18 24.1587C68.18 24.7055 68.1474 25.4914 68.1142 26.2774C67.1214 26.8583 66.2283 27.3025 65.6332 27.61C63.6149 28.5668 61.4315 29.6261 61.4315 31.4714C61.4315 31.6422 61.4315 31.8472 61.4977 32.0522C62.1262 33.9658 64.6071 34 65.9637 34C67.5516 33.8975 69.1396 33.2824 70.0991 32.1206C71.1578 30.8221 71.6538 28.9427 71.9185 27.0975C73.5397 26.2091 74.9953 25.1839 75.7893 24.0221C76.153 23.5095 76.2853 23.0311 76.2853 22.6211C76.2853 21.801 75.756 21.1859 75.1935 20.9125C74.6316 21.7668 73.5064 22.7919 72.1499 23.7487C72.2164 21.8351 72.2164 20.9809 72.2496 19.5457C72.2822 18.1447 72.3155 16.4703 72.382 15.0693C72.4478 13.8734 72.5469 12.8482 72.5469 12.6432C72.5469 11.8914 71.8852 11.2422 71.1245 10.8663C70.5952 10.593 70 10.4221 69.5366 10.4221C69.0737 10.4221 68.7426 10.593 68.7093 10.9347L68.6103 11.6181C67.7172 10.3196 66.3607 9.60197 64.905 9.60197C64.2766 9.60197 63.648 9.73865 63.0194 10.012C61.2992 10.798 60.1082 12.5749 59.4796 14.6251C59.0826 15.9919 58.8511 17.4613 58.8511 18.8964C58.8511 19.8874 58.9503 20.81 59.1488 21.6643C59.5127 23.3728 60.2074 24.6371 61.0676 25.4914C61.9277 26.3799 62.9863 26.8241 63.8797 26.8241C65.2688 26.8241 66.1292 25.6965 66.6253 24.7055C67.4193 23.202 67.8828 21.2543 68.2133 20.1266C68.2133 20.1266 68.18 22.4161 68.18 24.1587ZM65.6658 12.5749C66.0302 12.2332 66.3607 12.0965 66.6918 12.0965C67.3861 12.0965 67.9486 12.814 68.2465 13.6341C67.9154 15.3769 67.3861 17.3929 66.8241 19.1357C66.0628 21.4934 65.1365 23.3728 64.3099 23.3728C63.7141 23.3728 63.4826 22.1085 63.4826 20.605C63.4826 19.6824 63.5818 18.5889 63.7473 17.5296C64.0778 15.4793 64.7069 13.4633 65.6658 12.5749ZM64.8392 30.8904C64.9383 30.6513 65.3685 30.3779 65.9637 30.0703C66.4271 29.8312 67.0223 29.5236 67.684 29.2161C67.5516 29.6945 67.3861 30.1045 67.2211 30.412C66.9232 30.9246 66.493 31.2321 66.0628 31.403C65.8313 31.5055 65.5667 31.5397 65.3685 31.5397C65.0041 31.5397 64.7727 31.403 64.7727 31.1638C64.7727 31.0954 64.7727 30.993 64.8392 30.8904ZM80.5717 9.97788C79.8768 10.5246 79.3475 11.7548 79.3475 13.2924C79.3475 13.6 79.3807 13.9417 79.4139 14.2492C79.2151 14.5568 79.0496 14.8985 78.8514 15.3085C78.8181 14.1467 78.7523 13.1557 78.5867 12.5749C78.2556 11.3447 77.5939 10.6613 76.8997 10.2854C76.4695 10.0804 76.0392 9.97788 75.6755 9.97788C75.2785 9.97788 74.9473 10.0804 74.7824 10.2512C74.8815 10.3537 74.9147 10.9688 74.9147 11.9256C74.9147 13.2583 74.815 15.2402 74.815 18.794C74.815 21.3567 74.9147 23.7829 75.3443 24.8764C75.8078 26.0382 76.8997 26.7899 77.9251 26.7899C78.2888 26.7899 78.6858 26.6874 78.9837 26.4824C78.7523 25.013 78.7191 23.612 78.7191 22.211C78.7191 21.8693 78.7191 21.5618 78.7849 21.22C79.116 19.1698 79.91 17.803 80.6375 17.4271C81.5638 18.5547 83.0194 19.2723 84.5748 19.2723C86.3941 19.2723 88.2135 18.213 88.2135 16.3337C88.2135 15.3085 87.6183 14.6251 86.9235 14.6251C86.7579 15.616 85.8316 16.607 84.8394 16.607C84.7397 16.607 84.6739 16.607 84.5748 16.5728C83.2182 16.2994 82.7548 14.8985 82.7548 14.8985C82.7548 14.8985 83.979 13.4291 83.979 12.3698C83.979 10.9347 82.4901 9.70451 81.3656 9.70451C81.0677 9.70451 80.8031 9.80699 80.5717 9.97788ZM99.0996 24.1929C98.7359 23.9879 98.6036 22.8944 98.6036 21.4593C98.6036 20.6733 98.6362 19.8191 98.7027 18.9306C98.8682 16.4703 99.1655 13.9075 99.1655 13.0874C99.1655 12.2673 98.438 11.4814 97.6108 11.003C97.0482 10.6613 96.3866 10.4563 95.957 10.4563C95.5926 10.4563 95.3279 10.593 95.3279 10.9347L95.2621 11.4814C94.3358 10.2854 92.9793 9.67031 91.5569 9.67031C90.9285 9.67031 90.2668 9.77285 89.6378 10.012C86.7266 11.1055 85.5356 15.4794 85.5356 19.1015C85.5356 20.0241 85.6353 20.9125 85.7677 21.6643C86.4619 25.1839 88.8771 26.8583 90.4983 26.8583C90.7297 26.8583 90.9611 26.8241 91.1599 26.7558C93.6077 25.8673 94.3026 21.3909 94.7328 20.3999C94.7328 20.7075 94.6995 21.1517 94.6995 21.6643C94.6995 22.3819 94.766 23.2703 95.163 24.3296C95.7582 25.9698 97.4785 26.9266 98.9341 26.9266C100.919 26.9266 102.639 25.0472 103.103 23.3386C103.202 22.9969 103.235 22.6894 103.235 22.4161C103.235 21.22 102.375 20.8442 102.011 20.8442C101.912 21.3567 101.515 22.3477 100.952 23.1336C100.489 23.7829 99.9927 24.2954 99.4634 24.2954C99.3311 24.2954 99.232 24.2613 99.0996 24.1929ZM90.8288 23.3728C90.2994 23.3728 90.068 22.0401 90.068 20.4342C90.068 19.3748 90.1671 18.1105 90.3992 16.9487C90.7297 15.206 91.2922 13.5658 92.053 12.7799C92.4832 12.3356 92.9134 12.1306 93.2772 12.1306C93.9721 12.1306 94.5672 12.814 94.8651 13.8734C94.5014 15.6844 93.9388 17.7346 93.3104 19.4774C92.5164 21.6984 91.656 23.3728 90.8288 23.3728ZM123.427 26.9608C124.784 26.5508 126.405 24.9105 126.868 23.202C126.967 22.8944 127 22.6211 127 22.3819C127 21.3226 126.306 20.7417 125.776 20.7417C125.71 21.1176 125.379 21.9718 124.949 22.7578C124.486 23.612 123.857 24.3296 123.262 24.3296C123.097 24.3296 122.964 24.2954 122.799 24.1929C122.468 23.9879 122.402 22.9969 122.402 21.6643C122.402 20.6392 122.435 19.4432 122.501 18.2472C122.567 17.1879 122.601 16.0944 122.601 15.206C122.601 14.3859 122.567 13.7025 122.435 13.2924C122.038 11.8914 121.211 11.0371 120.318 10.593C119.722 10.2854 119.093 10.1487 118.531 10.1487C117.969 10.1487 117.44 10.2854 117.142 10.5246C116.48 11.003 115.884 11.9256 115.422 13.0191C114.892 14.2834 114.396 15.9577 113.966 17.5979C113.999 17.4271 113.999 17.0512 113.999 16.5728C113.999 15.5477 113.899 14.01 113.47 12.7799C112.973 11.3447 111.485 10.217 109.996 10.217C109.368 10.217 108.772 10.4221 108.209 10.8663C106.787 12.0623 105.728 17.4955 105.563 18.3839C105.662 17.2562 105.761 16.1286 105.761 15.001C105.761 13.8734 105.662 12.7457 105.398 12.1306C104.901 11.0713 103.876 10.4904 102.85 10.4904C102.487 10.4904 102.09 10.5588 101.758 10.7296C101.924 11.3105 101.99 12.3356 101.99 13.6341C101.99 15.1376 101.924 17.0171 101.825 18.7256C101.725 20.3999 101.659 22.006 101.659 23.0995C101.659 23.5437 101.659 23.9196 101.693 24.1587C101.857 25.7648 103.644 26.6191 104.835 26.6191C105.199 26.6191 105.497 26.5508 105.695 26.3799C105.662 26.2774 105.629 26.1065 105.629 25.8673C105.629 24.7397 106.125 22.3135 106.787 19.8874C107.68 16.607 108.871 13.395 109.599 13.395C110.095 13.395 110.227 14.7618 110.227 16.5045C110.227 17.4955 110.162 18.6231 110.128 19.6824C110.062 21.3909 109.93 23.0653 109.93 24.0563C109.93 24.3296 109.93 24.5346 109.963 24.7055C110.095 25.9015 111.452 26.5508 112.609 26.5508C113.073 26.5508 113.536 26.4482 113.867 26.2091C113.834 26.1407 113.834 26.004 113.834 25.8673C113.834 24.8764 114.396 22.3135 115.124 19.7507C116.05 16.5387 117.274 13.3608 117.969 13.3608C118.465 13.3608 118.564 14.3175 118.564 15.4793C118.564 16.8462 118.399 18.6573 118.399 20.3999C118.399 21.596 118.498 22.7578 118.73 23.6803C119.226 25.6965 121.078 27.0633 122.7 27.0633C122.964 27.0633 123.196 27.0292 123.427 26.9608Z" fill="black"/>
</svg>
